<?xml version="1.0" encoding="UTF-8" standalone="no"?>
<!-- Generator: Adobe Illustrator 17.0.0, SVG Export Plug-In . SVG Version: 6.00 Build 0)  -->

<svg
   xmlns:dc="http://purl.org/dc/elements/1.1/"
   xmlns:cc="http://creativecommons.org/ns#"
   xmlns:rdf="http://www.w3.org/1999/02/22-rdf-syntax-ns#"
   xmlns:svg="http://www.w3.org/2000/svg"
   xmlns="http://www.w3.org/2000/svg"
   xmlns:sodipodi="http://sodipodi.sourceforge.net/DTD/sodipodi-0.dtd"
   xmlns:inkscape="http://www.inkscape.org/namespaces/inkscape"
   version="1.1"
   id="Layer_1"
   x="0px"
   y="0px"
   width="30"
   height="30"
   viewBox="0 0 30 30.000002"
   enable-background="new 0 0 18 17.217"
   xml:space="preserve"
   inkscape:version="0.48.3.1 r9886"
   sodipodi:docname="account.svg"><metadata
   id="metadata3184"><rdf:RDF><cc:Work
       rdf:about=""><dc:format>image/svg+xml</dc:format><dc:type
         rdf:resource="http://purl.org/dc/dcmitype/StillImage" /></cc:Work></rdf:RDF></metadata><defs
   id="defs3182" /><sodipodi:namedview
   pagecolor="#ffffff"
   bordercolor="#666666"
   borderopacity="1"
   objecttolerance="10"
   gridtolerance="10"
   guidetolerance="10"
   inkscape:pageopacity="0"
   inkscape:pageshadow="2"
   inkscape:window-width="1188"
   inkscape:window-height="762"
   id="namedview3180"
   showgrid="true"
   inkscape:zoom="19.433333"
   inkscape:cx="8.8765009"
   inkscape:cy="15"
   inkscape:window-x="65"
   inkscape:window-y="24"
   inkscape:window-maximized="0"
   inkscape:current-layer="Layer_1"><inkscape:grid
     type="xygrid"
     id="grid3186"
     empspacing="5"
     visible="true"
     enabled="true"
     snapvisiblegridlinesonly="true" /></sodipodi:namedview>
<path
   id="user_1_"
   d="m 28.964368,23.12673 c -0.843033,-0.478388 -7.272824,-3.731756 -8.945506,-4.874198 v -4.944449 c 0,-0.597147 1.672682,-1.51545 1.672682,-2.908795 V 6.4919012 c 0,-3.2399861 -2.763272,-5.8911879 -6.69073,-5.8911879 -3.927459,0 -6.6907304,2.6512018 -6.6907304,5.8911879 0,0 0,0.6339467 0,3.9073868 0,1.406727 1.6726823,2.328374 1.6726823,2.922176 v 4.931068 c -1.6726823,1.142442 -8.102474,4.39581 -8.945506,4.874198 -1.04877196,0.595475 -1.09058903,1.162514 -1.09058903,2.540804 0,0.562021 0,3.077737 0,3.077737 0,0.359626 0.29439213,0.654018 0.65401887,0.654018 H 29.399265 c 0.359627,0 0.65402,-0.294392 0.65402,-0.654018 0,0 0,-2.515716 0,-3.077737 0.0017,-1.37829 -0.04015,-1.945329 -1.088917,-2.540804 z"
   inkscape:connector-curvature="0"
   style="fill:#06a1d3" />
</svg>