<?xml version="1.0" encoding="UTF-8" standalone="no"?>
<!-- Generator: Adobe Illustrator 17.0.0, SVG Export Plug-In . SVG Version: 6.00 Build 0)  -->

<svg
   xmlns:dc="http://purl.org/dc/elements/1.1/"
   xmlns:cc="http://creativecommons.org/ns#"
   xmlns:rdf="http://www.w3.org/1999/02/22-rdf-syntax-ns#"
   xmlns:svg="http://www.w3.org/2000/svg"
   xmlns="http://www.w3.org/2000/svg"
   xmlns:sodipodi="http://sodipodi.sourceforge.net/DTD/sodipodi-0.dtd"
   xmlns:inkscape="http://www.inkscape.org/namespaces/inkscape"
   version="1.1"
   id="Layer_1"
   x="0px"
   y="0px"
   width="30"
   height="30"
   viewBox="0 0 30 30.000001"
   enable-background="new 0 0 34 24.494"
   xml:space="preserve"
   inkscape:version="0.48.3.1 r9886"
   sodipodi:docname="ambulance.svg"><metadata
   id="metadata3229"><rdf:RDF><cc:Work
       rdf:about=""><dc:format>image/svg+xml</dc:format><dc:type
         rdf:resource="http://purl.org/dc/dcmitype/StillImage" /></cc:Work></rdf:RDF></metadata><defs
   id="defs3227" /><sodipodi:namedview
   pagecolor="#ffffff"
   bordercolor="#666666"
   borderopacity="1"
   objecttolerance="10"
   gridtolerance="25"
   guidetolerance="10"
   inkscape:pageopacity="0"
   inkscape:pageshadow="2"
   inkscape:window-width="1393"
   inkscape:window-height="920"
   id="namedview3225"
   showgrid="true"
   inkscape:zoom="9.5294118"
   inkscape:cx="4.5123457"
   inkscape:cy="12.247"
   inkscape:window-x="65"
   inkscape:window-y="24"
   inkscape:window-maximized="0"
   inkscape:current-layer="Layer_1"><inkscape:grid
     type="xygrid"
     id="grid3231"
     empspacing="5"
     visible="true"
     enabled="true"
     snapvisiblegridlinesonly="true" /></sodipodi:namedview>
<path
   d="m 21.096329,23.591089 c 0,0.02475 0,0.05039 0.0044,0.07072 0.03359,1.19964 1.020181,2.16501 2.227777,2.16501 1.207597,0 2.194184,-0.96537 2.227778,-2.16501 0.0044,-0.02122 0.0044,-0.04597 0.0044,-0.07072 0,-1.233234 -0.998964,-2.232198 -2.232198,-2.232198 -1.233232,0 -2.232197,0.998964 -2.232197,2.232198 z m -18.3915373,0 c 0,0.02475 0,0.05039 0.00442,0.07072 0.033593,1.19964 1.0201805,2.16501 2.2277771,2.16501 1.2075967,0 2.1941837,-0.96537 2.2277771,-2.16501 0.00442,-0.02122 0.00442,-0.04597 0.00442,-0.07072 0,-1.233234 -0.9989635,-2.232198 -2.2321973,-2.232198 -1.2332338,0 -2.2321973,0.998964 -2.2321973,2.232198 z m -2.7334472,-5.990246 v 5.224668 c 0,0.4597 0.11669309,1.074107 0.57727717,1.074107 H 1.8782156 c -0.00442,0 -0.00442,-0.135258 -0.00442,-0.160011 0,-1.692934 1.3711437,-3.153366 3.0640776,-3.153366 1.6929338,0 3.0640776,1.430375 3.0640776,3.123309 0,0.02475 0,0.190068 -0.00442,0.190068 H 20.26887 c -0.0044,0 -0.0044,-0.135258 -0.0044,-0.160011 0,-1.692934 1.371144,-3.153366 3.064077,-3.153366 1.692934,0 3.064078,1.430375 3.064078,3.123309 0,0.02475 0,0.190068 -0.0044,0.190068 h 2.583119 c 0.459701,0 1.057311,-0.614407 1.057311,-1.074107 V 6.1065743 c 0,-0.4597002 -0.596726,-0.7708818 -1.057311,-0.7708818 H 12.402695 l 0,0 h -0.129954 c -0.05393,-0.8849226 -0.513626,-1.1625107 -1.074106,-1.1625107 -0.556061,0 -1.015761,0.2775881 -1.069687,1.1616266 H 9.9167781 l 0,0 H 9.3969635 c -0.4597001,0 -1.0413974,0.2722839 -1.3083771,0.6488839 L 4.6894582,10.721255 c -0.2678637,0.371297 -0.6948543,0.969791 -0.987471,1.320754 L 0.37711819,16.121847 C 0.08450143,16.476346 -0.0286555,17.141143 -0.0286555,17.600843 z M 15.804475,13.212476 c 0,-2.653884 2.152633,-4.8065177 4.806518,-4.8065177 2.653884,0 4.806518,2.1526337 4.806518,4.8065177 0,2.653884 -2.152634,4.806518 -4.806518,4.806518 -2.653885,0 -4.806518,-2.152634 -4.806518,-4.806518 z M 2.2203386,15.943271 C 3.9256489,15.059233 8.9080902,7.1028853 8.9080902,7.1028853 H 9.6957685 V 15.943271 H 2.2203386 z M 21.253688,10.216469 v 2.505366 h 2.401933 v 1.080295 h -2.401933 v 2.52835 H 20.127423 V 13.80213 H 17.72549 v -1.080295 h 2.401933 v -2.505366 h 1.126265 z"
   id="path3223"
   inkscape:connector-curvature="0"
   style="fill:#06a1d3" />
</svg>