<?xml version="1.0" encoding="utf-8"?>
<!-- Generator: Adobe Illustrator 17.0.0, SVG Export Plug-In . SVG Version: 6.00 Build 0)  -->
<!DOCTYPE svg PUBLIC "-//W3C//DTD SVG 1.1//EN" "http://www.w3.org/Graphics/SVG/1.1/DTD/svg11.dtd">
<svg version="1.1" id="Layer_1" xmlns="http://www.w3.org/2000/svg" xmlns:xlink="http://www.w3.org/1999/xlink" x="0px" y="0px"
	 width="22.197px" height="20px" viewBox="0 0 22.197 20" enable-background="new 0 0 22.197 20" xml:space="preserve">
<path fill="#06a1d3" d="M1.116,7.803L0,5.845L10.78,0h0.645l10.772,5.564l-1.076,2.017l-10-5.254L1.116,7.803z M11.832,17v-1h5.851
	l0.742-8.879L11.13,3.308L3.79,7.277L4.841,20h12.536l0.048-2.876 M8.591,9.1c0-1.388,1.129-2.517,2.517-2.517
	c1.392,0,2.517,1.129,2.517,2.517c0,1.392-1.125,2.517-2.517,2.517C9.72,11.617,8.591,10.492,8.591,9.1z M11.108,17.006
	c-0.309,0-0.557-0.251-0.557-0.561c0-0.305,0.247-0.557,0.557-0.557c0.309,0,0.561,0.251,0.561,0.557
	C11.668,16.754,11.417,17.006,11.108,17.006z"/>
</svg>
