<?xml version="1.0" encoding="utf-8"?>
<!-- Generator: Adobe Illustrator 17.0.0, SVG Export Plug-In . SVG Version: 6.00 Build 0)  -->
<!DOCTYPE svg PUBLIC "-//W3C//DTD SVG 1.1//EN" "http://www.w3.org/Graphics/SVG/1.1/DTD/svg11.dtd">
<svg version="1.1" id="Layer_1" xmlns="http://www.w3.org/2000/svg" xmlns:xlink="http://www.w3.org/1999/xlink" x="0px" y="0px"
	 width="22px" height="26px" viewBox="0 0 22 26" enable-background="new 0 0 22 26" xml:space="preserve">
<path id="calculator_1_" fill="#06a1d3" d="M19,6.934C19,7.523,18.523,8,17.934,8H4.066C3.477,8,3,7.523,3,6.934V4.066
	C3,3.477,3.477,3,4.066,3h13.868C18.523,3,19,3.477,19,4.066V6.934z M19.702,0H3.71C1.943,0,0,1.138,0,2.904v19.191
	C0,23.861,1.943,26,3.71,26h15.993C21.469,26,22,23.861,22,22.095V2.904C22,1.138,21.469,0,19.702,0z M6,21.787
	C6,21.904,5.904,22,5.786,22H3.214C3.096,22,3,21.904,3,21.787v-1.573C3,20.096,3.096,20,3.214,20h2.573C5.904,20,6,20.096,6,20.213
	V21.787z M6,18.787C6,18.904,5.904,19,5.786,19H3.214C3.096,19,3,18.904,3,18.787v-1.573C3,17.096,3.096,17,3.214,17h2.573
	C5.904,17,6,17.096,6,17.213V18.787z M6,15.787C6,15.904,5.904,16,5.786,16H3.214C3.096,16,3,15.904,3,15.787v-1.573
	C3,14.096,3.096,14,3.214,14h2.573C5.904,14,6,14.096,6,14.213V15.787z M6,12.786C6,12.904,5.904,13,5.786,13H3.214
	C3.096,13,3,12.904,3,12.786v-1.573C3,11.096,3.096,11,3.214,11h2.573C5.904,11,6,11.096,6,11.214V12.786z M10,21.787
	C10,21.904,9.904,22,9.787,22H7.213C7.096,22,7,21.904,7,21.787v-1.573C7,20.096,7.096,20,7.213,20h2.573
	C9.904,20,10,20.096,10,20.213V21.787z M10,18.787C10,18.904,9.904,19,9.787,19H7.213C7.096,19,7,18.904,7,18.787v-1.573
	C7,17.096,7.096,17,7.213,17h2.573C9.904,17,10,17.096,10,17.213V18.787z M10,15.787C10,15.904,9.904,16,9.787,16H7.213
	C7.096,16,7,15.904,7,15.787v-1.573C7,14.096,7.096,14,7.213,14h2.573C9.904,14,10,14.096,10,14.213V15.787z M10,12.786
	C10,12.904,9.904,13,9.787,13H7.213C7.096,13,7,12.904,7,12.786v-1.573C7,11.096,7.096,11,7.213,11h2.573
	C9.904,11,10,11.096,10,11.214V12.786z M15,21.787C15,21.904,14.904,22,14.787,22h-2.573C12.096,22,12,21.904,12,21.787v-1.573
	C12,20.096,12.096,20,12.213,20h2.573C14.904,20,15,20.096,15,20.213V21.787z M15,18.787C15,18.904,14.904,19,14.787,19h-2.573
	C12.096,19,12,18.904,12,18.787v-1.573C12,17.096,12.096,17,12.213,17h2.573C14.904,17,15,17.096,15,17.213V18.787z M15,15.787
	C15,15.904,14.904,16,14.787,16h-2.573C12.096,16,12,15.904,12,15.787v-1.573C12,14.096,12.096,14,12.213,14h2.573
	C14.904,14,15,14.096,15,14.213V15.787z M15,12.786C15,12.904,14.904,13,14.787,13h-2.573C12.096,13,12,12.904,12,12.786v-1.573
	C12,11.096,12.096,11,12.213,11h2.573C14.904,11,15,11.096,15,11.214V12.786z M19,21.787C19,21.904,18.904,22,18.787,22h-2.573
	C16.096,22,16,21.904,16,21.787v-7.573C16,14.096,16.096,14,16.213,14h2.573C18.904,14,19,14.096,19,14.213V21.787z M19,12.786
	C19,12.904,18.904,13,18.787,13h-2.573C16.096,13,16,12.904,16,12.786v-1.573C16,11.096,16.096,11,16.213,11h2.573
	C18.904,11,19,11.096,19,11.214V12.786z M19,6.934C19,7.523,18.523,8,17.934,8H4.066C3.477,8,3,7.523,3,6.934V4.066
	C3,3.477,3.477,3,4.066,3h13.868C18.523,3,19,3.477,19,4.066V6.934z"/>
</svg>
