<?xml version="1.0" encoding="utf-8"?>
<!-- Generator: Adobe Illustrator 17.0.0, SVG Export Plug-In . SVG Version: 6.00 Build 0)  -->
<!DOCTYPE svg PUBLIC "-//W3C//DTD SVG 1.1//EN" "http://www.w3.org/Graphics/SVG/1.1/DTD/svg11.dtd">
<svg version="1.1" id="Layer_1" xmlns="http://www.w3.org/2000/svg" xmlns:xlink="http://www.w3.org/1999/xlink" x="0px" y="0px"
	 width="19.904px" height="20.111px" viewBox="0 0 19.904 20.111" enable-background="new 0 0 19.904 20.111" xml:space="preserve">
<path id="cleaning_1_" fill="#06a1d3" d="M9.952,12.647V11.04c0,0-0.972-4.198-4.963-4.198S0.06,10.982,0,10.914v1.733h0.829v6.635
	l0.846,0.829h6.583l0.864-0.829v-6.635C9.122,12.647,9.952,12.647,9.952,12.647z M4.989,7.943c2.825,0,3.738,3.045,3.738,3.045h-0.7
	H1.926H1.225C1.225,10.989,2.164,7.943,4.989,7.943z M10.781,16.794h8.293l0.829,3.317H9.952L10.781,16.794z M19.074,14.928v1.451
	h-8.293v-1.451c0-0.456,0.167-0.622,0.623-0.622h2.694V0.829C14.099,0.371,14.47,0,14.928,0s0.829,0.371,0.829,0.829v13.477h2.281
	C18.495,14.306,19.074,14.472,19.074,14.928z"/>
</svg>
