<?xml version="1.0" encoding="utf-8"?>
<!-- Generator: Adobe Illustrator 17.0.0, SVG Export Plug-In . SVG Version: 6.00 Build 0)  -->
<!DOCTYPE svg PUBLIC "-//W3C//DTD SVG 1.1//EN" "http://www.w3.org/Graphics/SVG/1.1/DTD/svg11.dtd">
<svg version="1.1" id="Layer_1" xmlns="http://www.w3.org/2000/svg" xmlns:xlink="http://www.w3.org/1999/xlink" x="0px" y="0px"
	 width="24.832px" height="19px" viewBox="0 0 24.832 19" enable-background="new 0 0 24.832 19" xml:space="preserve">
<path fill="#06a1d3" d="M12.412,0C5.559,0,0,5.785,0,12.741C0,14.986,0.576,17,1.594,19h21.644c1.018-2,1.594-4.014,1.594-6.259
	C24.832,5.785,19.273,0,12.412,0z M13.18,14.97c0,0.856-0.684,1.542-1.527,1.542c-0.835,0-1.519-0.686-1.519-1.542
	s0.684-1.542,1.519-1.542c0.017,0,0.033,0,0.05,0.008l8.063-7.727l-6.602,9.099C13.18,14.86,13.18,14.919,13.18,14.97z"/>
</svg>
