<?xml version="1.0" encoding="utf-8"?>
<!-- Generator: Adobe Illustrator 17.0.0, SVG Export Plug-In . SVG Version: 6.00 Build 0)  -->
<!DOCTYPE svg PUBLIC "-//W3C//DTD SVG 1.1//EN" "http://www.w3.org/Graphics/SVG/1.1/DTD/svg11.dtd">
<svg version="1.1" id="Layer_1" xmlns="http://www.w3.org/2000/svg" xmlns:xlink="http://www.w3.org/1999/xlink" x="0px" y="0px"
	 width="23px" height="22px" viewBox="0 0 23 22" enable-background="new 0 0 23 22" xml:space="preserve">
<path id="disk_x5F_save_1_" fill="#06a1d3" d="M4.464,8.253C4.282,8.071,4.344,8,4.602,8H9V0.563C9,0.304,9.04,0,9.298,0h4.696
	C14.253,0,14,0.304,14,0.563V8h4.691c0.258,0,0.32,0.071,0.138,0.253l-6.85,6.83c-0.183,0.183-0.482,0.232-0.664,0.049L4.464,8.253z
	 M23,17.47V22H0v-4.53C0,17.211,0.586,18,0.845,18h21.567C22.67,18,23,17.211,23,17.47z M20.914,19.13h-1.712v0.856h1.712V19.13z"/>
</svg>
