<?xml version="1.0" encoding="utf-8"?>
<!-- Generator: Adobe Illustrator 17.0.0, SVG Export Plug-In . SVG Version: 6.00 Build 0)  -->
<!DOCTYPE svg PUBLIC "-//W3C//DTD SVG 1.1//EN" "http://www.w3.org/Graphics/SVG/1.1/DTD/svg11.dtd">
<svg version="1.1" id="Layer_1" xmlns="http://www.w3.org/2000/svg" xmlns:xlink="http://www.w3.org/1999/xlink" x="0px" y="0px"
	 width="24.714px" height="21.509px" viewBox="0 0 24.714 21.509" enable-background="new 0 0 24.714 21.509" xml:space="preserve">
<path id="exit_1_" fill="#06a1d3" d="M11.387,10.536l-4.966,4.086C6.224,14.787,6,14.712,6,14.454v-1.445H0.969
	C0.71,13.009,0,11.927,0,11.668V8.856c0-0.259,0.71,0.153,0.969,0.153H6V6.07C6,5.812,6.225,5.736,6.423,5.9l4.931,4.038
	C11.553,10.102,11.585,10.372,11.387,10.536z M24,0.889v16.87c0,0.119,0.408,0.231,0.366,0.336
	c-0.014,0.036,0.182,0.065,0.164,0.099c-0.035,0.066,0.035,0.127-0.014,0.182c-0.028,0.033-0.005,0.059-0.037,0.087
	c-0.053,0.045-0.083,0.083-0.145,0.115c-0.039,0.021-0.063,0.04-0.105,0.056c-0.023,0.007-0.034,0.023-0.058,0.029l-10.306,2.812
	c-0.081,0.022-0.162,0.033-0.245,0.033c-0.203,0-0.745-0.066-0.911-0.192C12.478,21.139,12,20.863,12,20.572v-1.563H8.935
	C8.417,19.009,7,18.278,7,17.76v-2.447l5-3.905V9.066L7,5.202V0.889c0-0.518,1.417-0.88,1.935-0.88h14.996
	c0.037,0,0.067-0.012,0.103-0.008c0.052,0.006,0.101,0.002,0.151,0.017c0.084,0.024,0.159,0.051,0.232,0.096
	c0.026,0.016,0.06,0.015,0.084,0.034c0.015,0.011,0.021,0.028,0.035,0.041c0.072,0.061,0.128,0.135,0.178,0.215
	c0.02,0.033-0.388,0.059-0.371,0.094C24.398,0.618,24,0.748,24,0.889z M22,2.117l-8,2.3v14.927l8-2.3V2.117z"/>
</svg>
