<?xml version="1.0" encoding="UTF-8" standalone="no"?>
<!-- Generator: Adobe Illustrator 17.0.0, SVG Export Plug-In . SVG Version: 6.00 Build 0)  -->

<svg
   xmlns:dc="http://purl.org/dc/elements/1.1/"
   xmlns:cc="http://creativecommons.org/ns#"
   xmlns:rdf="http://www.w3.org/1999/02/22-rdf-syntax-ns#"
   xmlns:svg="http://www.w3.org/2000/svg"
   xmlns="http://www.w3.org/2000/svg"
   xmlns:sodipodi="http://sodipodi.sourceforge.net/DTD/sodipodi-0.dtd"
   xmlns:inkscape="http://www.inkscape.org/namespaces/inkscape"
   version="1.1"
   id="Layer_1"
   x="0px"
   y="0px"
   width="30"
   height="30"
   viewBox="0 0 30.000001 29.999999"
   enable-background="new 0 0 22.998 16.475"
   xml:space="preserve"
   inkscape:version="0.48.3.1 r9886"
   sodipodi:docname="gamepad.svg"><metadata
   id="metadata3403"><rdf:RDF><cc:Work
       rdf:about=""><dc:format>image/svg+xml</dc:format><dc:type
         rdf:resource="http://purl.org/dc/dcmitype/StillImage" /></cc:Work></rdf:RDF></metadata><defs
   id="defs3401" /><sodipodi:namedview
   pagecolor="#ffffff"
   bordercolor="#666666"
   borderopacity="1"
   objecttolerance="10"
   gridtolerance="10"
   guidetolerance="10"
   inkscape:pageopacity="0"
   inkscape:pageshadow="2"
   inkscape:window-width="1395"
   inkscape:window-height="949"
   id="namedview3399"
   showgrid="false"
   inkscape:zoom="14.088182"
   inkscape:cx="-0.35490739"
   inkscape:cy="8.2375002"
   inkscape:window-x="65"
   inkscape:window-y="24"
   inkscape:window-maximized="1"
   inkscape:current-layer="Layer_1" />
<path
   id="gamepad_1_"
   d="M 29.862888,22.039427 26.14384,6.8879897 c -0.467001,-1.904528 -2.396314,-3.031591 -4.285189,-2.50328 l -5.036564,1.768863 H 13.255662 L 8.1408299,4.3847097 C 6.2506507,3.8563987 4.3226418,4.9834617 3.8556411,6.8879897 L 0.13659287,22.039427 c -0.4670008,1.905832 0.3026374,3.569033 1.71146663,3.696872 1.4088292,0.127838 3.4803299,-1.082712 4.6047843,-2.691125 l 3.0315917,-4.339977 c 0.5935345,0.324814 1.2640325,0.527007 1.9893185,0.527007 1.523623,0 2.841139,-0.827035 3.566425,-2.04802 0.725286,1.220985 2.044107,2.04802 3.566425,2.04802 0.701806,0 1.351432,-0.190453 1.931922,-0.497004 l 3.01072,4.309974 c 1.124455,1.608413 3.194651,2.818963 4.604785,2.691125 1.40622,-0.127839 2.177163,-1.789735 1.708857,-3.696872 z M 8.4995595,10.909676 H 7.311186 V 9.7213017 H 6.1228125 V 8.5316237 H 7.311186 v -1.188373 h 1.1883735 v 1.188373 H 9.687933 v 1.188374 H 8.4995595 V 10.909676 z M 11.47245,17.3055 c -1.235335,0 -2.2345596,-1.00053 -2.2345596,-2.23456 0,-1.235335 1.0005296,-2.23456 2.2345596,-2.23456 1.235334,0 2.234559,0.999225 2.234559,2.23456 0,1.23403 -0.999225,2.23456 -2.234559,2.23456 z m 7.134154,0 c -1.235334,0 -2.23456,-1.00053 -2.23456,-2.23456 0,-1.235335 1.00053,-2.23456 2.23456,-2.23456 1.235335,0 2.23456,0.999225 2.23456,2.23456 0,1.23403 -1.00053,2.23456 -2.23456,2.23456 z m 1.188374,-7.113283 c -0.585708,0 -1.065754,-0.4800463 -1.065754,-1.0657543 0,-0.585707 0.480046,-1.065753 1.065754,-1.065753 0.585707,0 1.065753,0.480046 1.065753,1.065753 0,0.585708 -0.478741,1.0657543 -1.065753,1.0657543 z m 2.378051,2.378051 c -0.585708,0 -1.065753,-0.480045 -1.065753,-1.065753 0,-0.585708 0.480045,-1.065753 1.065753,-1.065753 0.585708,0 1.065753,0.480045 1.065753,1.065753 0,0.585708 -0.480045,1.065753 -1.065753,1.065753 z m 0,-4.7561033 c -0.585708,0 -1.065753,-0.480045 -1.065753,-1.065753 0,-0.585708 0.480045,-1.065753 1.065753,-1.065753 0.585708,0 1.065753,0.480045 1.065753,1.065753 0,0.585708 -0.480045,1.065753 -1.065753,1.065753 z m 2.378052,2.3780523 c -0.585708,0 -1.065754,-0.4800463 -1.065754,-1.0657543 0,-0.585707 0.480046,-1.065753 1.065754,-1.065753 0.585707,0 1.065753,0.480046 1.065753,1.065753 0,0.585708 -0.480046,1.0657543 -1.065753,1.0657543 z"
   inkscape:connector-curvature="0"
   style="fill:#06a1d3" />
</svg>