<?xml version="1.0" encoding="UTF-8" standalone="no"?>
<!-- Generator: Adobe Illustrator 17.0.0, SVG Export Plug-In . SVG Version: 6.00 Build 0)  -->

<svg
   xmlns:dc="http://purl.org/dc/elements/1.1/"
   xmlns:cc="http://creativecommons.org/ns#"
   xmlns:rdf="http://www.w3.org/1999/02/22-rdf-syntax-ns#"
   xmlns:svg="http://www.w3.org/2000/svg"
   xmlns="http://www.w3.org/2000/svg"
   xmlns:sodipodi="http://sodipodi.sourceforge.net/DTD/sodipodi-0.dtd"
   xmlns:inkscape="http://www.inkscape.org/namespaces/inkscape"
   version="1.1"
   id="Layer_1"
   x="0px"
   y="0px"
   width="30"
   height="30"
   viewBox="0 0 30 30"
   enable-background="new 0 0 25.847 15.644"
   xml:space="preserve"
   inkscape:version="0.48.3.1 r9886"
   sodipodi:docname="influencer.svg"><metadata
   id="metadata3446"><rdf:RDF><cc:Work
       rdf:about=""><dc:format>image/svg+xml</dc:format><dc:type
         rdf:resource="http://purl.org/dc/dcmitype/StillImage" /></cc:Work></rdf:RDF></metadata><defs
   id="defs3444" /><sodipodi:namedview
   pagecolor="#ffffff"
   bordercolor="#666666"
   borderopacity="1"
   objecttolerance="10"
   gridtolerance="10"
   guidetolerance="10"
   inkscape:pageopacity="0"
   inkscape:pageshadow="2"
   inkscape:window-width="1395"
   inkscape:window-height="949"
   id="namedview3442"
   showgrid="false"
   inkscape:zoom="12.535304"
   inkscape:cx="-0.39887346"
   inkscape:cy="7.822"
   inkscape:window-x="65"
   inkscape:window-y="24"
   inkscape:window-maximized="1"
   inkscape:current-layer="Layer_1" />
<path
   d="m 15.338337,8.2042415 c 0,-1.261655 1.022556,-2.28305 2.28305,-2.28305 1.260495,0 2.283051,1.021395 2.283051,2.28305 0,1.261655 -1.022556,2.2830505 -2.283051,2.2830505 -1.260494,0 -2.28305,-1.0225555 -2.28305,-2.2830505 z m 11.279452,8.5007925 c -1.867528,0 -3.38221,1.514683 -3.38221,3.382211 0,1.867528 1.514682,3.382211 3.38221,3.382211 1.867528,0 3.382211,-1.514683 3.382211,-3.382211 0,-1.867528 -1.513522,-3.382211 -3.382211,-3.382211 z m -9.667272,3.901033 c -5.068674,0.09518 -8.0632187,-0.819437 -9.8123578,-1.876813 0.6604248,-0.728905 1.0736255,-1.686463 1.0736255,-2.747321 0,-1.56227 -0.8832746,-2.905173 -2.1681433,-3.598096 0.677835,-0.799706 1.599412,-1.607537 2.8320502,-2.204125 L 9.2645181,12.386159 13.698302,8.6673515 8.2605331,6.6860775 8.6679305,8.9958235 C 6.9362015,9.7607085 5.7174914,10.883083 4.8841258,11.953227 4.6310984,11.905637 4.3722676,11.875456 4.1064727,11.875456 1.8385112,11.875456 0,13.713969 0,15.98193 c 0,2.267961 1.8385112,4.106472 4.1064727,4.106472 0.7486362,0 1.44156,-0.215886 2.0462723,-0.56641 1.8152977,1.208264 4.877162,2.266801 10.038689,2.266801 0.269277,0 0.562928,-0.01161 0.843812,-0.01741 l 0.168298,2.307425 4.78895,-3.249894 -5.207954,-2.52331 0.165977,2.30046 z"
   id="path3440"
   inkscape:connector-curvature="0"
   style="fill:#06a1d3" />
</svg>