<?xml version="1.0" encoding="UTF-8" standalone="no"?>
<!-- Generator: Adobe Illustrator 17.0.0, SVG Export Plug-In . SVG Version: 6.00 Build 0)  -->

<svg
   xmlns:dc="http://purl.org/dc/elements/1.1/"
   xmlns:cc="http://creativecommons.org/ns#"
   xmlns:rdf="http://www.w3.org/1999/02/22-rdf-syntax-ns#"
   xmlns:svg="http://www.w3.org/2000/svg"
   xmlns="http://www.w3.org/2000/svg"
   xmlns:sodipodi="http://sodipodi.sourceforge.net/DTD/sodipodi-0.dtd"
   xmlns:inkscape="http://www.inkscape.org/namespaces/inkscape"
   version="1.1"
   id="Layer_1"
   x="0px"
   y="0px"
   width="30"
   height="30"
   viewBox="0 0 30.000001 30.000001"
   enable-background="new 0 0 19.88 19.88"
   xml:space="preserve"
   inkscape:version="0.48.3.1 r9886"
   sodipodi:docname="target.svg"><metadata
   id="metadata3147"><rdf:RDF><cc:Work
       rdf:about=""><dc:format>image/svg+xml</dc:format><dc:type
         rdf:resource="http://purl.org/dc/dcmitype/StillImage" /></cc:Work></rdf:RDF></metadata><defs
   id="defs3145" /><sodipodi:namedview
   pagecolor="#ffffff"
   bordercolor="#666666"
   borderopacity="1"
   objecttolerance="10"
   gridtolerance="10"
   guidetolerance="10"
   inkscape:pageopacity="0"
   inkscape:pageshadow="2"
   inkscape:window-width="1005"
   inkscape:window-height="653"
   id="namedview3143"
   showgrid="true"
   inkscape:zoom="11.871228"
   inkscape:cx="-0.084237285"
   inkscape:cy="16.678982"
   inkscape:window-x="65"
   inkscape:window-y="24"
   inkscape:window-maximized="0"
   inkscape:current-layer="Layer_1"><inkscape:grid
     type="xygrid"
     id="grid3149"
     empspacing="5"
     visible="true"
     enabled="true"
     snapvisiblegridlinesonly="true" /></sodipodi:namedview>
<path
   d="M 15.000001,0 C 6.715292,0 0,6.715292 0,15.000001 c 0,8.284708 6.715292,15 15.000001,15 8.284708,0 15,-6.715292 15,-15 C 30.000001,6.715292 23.284709,0 15.000001,0 z m 0,24.718311 c -5.3722341,0 -9.7334012,-4.361167 -9.7334012,-9.71831 0,-5.3722341 4.3611671,-9.7334012 9.7334012,-9.7334012 5.357143,0 9.71831,4.3611671 9.71831,9.7334012 0,5.357143 -4.361167,9.71831 -9.718311,9.71831 z m 3.863179,-9.71831 c 0,2.127766 -1.735413,3.878269 -3.863179,3.878269 -2.142858,0 -3.87827,-1.750503 -3.87827,-3.878269 0,-2.142858 1.735412,-3.87827 3.87827,-3.87827 2.127766,0 3.863179,1.735412 3.863179,3.87827 z"
   id="path3141"
   inkscape:connector-curvature="0"
   style="fill:#06a1d3" />
</svg>